<mxfile host="app.diagrams.net" modified="2021-08-25T07:49:28.960Z" agent="5.0 (X11; Linux x86_64) AppleWebKit/537.36 (KHTML, like Gecko) Chrome/92.0.4515.159 Safari/537.36" etag="L8adqFjuQ7YgXRZOsjQf" version="14.9.9" type="github">
  <diagram id="C5RBs43oDa-KdzZeNtuy" name="Page-1">
    <mxGraphModel dx="1588" dy="953" grid="1" gridSize="10" guides="1" tooltips="1" connect="1" arrows="1" fold="1" page="1" pageScale="1" pageWidth="827" pageHeight="1169" math="0" shadow="0">
      <root>
        <mxCell id="WIyWlLk6GJQsqaUBKTNV-0" />
        <mxCell id="WIyWlLk6GJQsqaUBKTNV-1" parent="WIyWlLk6GJQsqaUBKTNV-0" />
        <mxCell id="T5eM8oi75dSlX7hNDuPz-0" value="" style="rounded=1;whiteSpace=wrap;html=1;arcSize=3;" vertex="1" parent="WIyWlLk6GJQsqaUBKTNV-1">
          <mxGeometry x="40" y="90" width="1070" height="720" as="geometry" />
        </mxCell>
        <mxCell id="T5eM8oi75dSlX7hNDuPz-1" value="COVID 19 TRACKER" style="text;html=1;strokeColor=none;fillColor=none;align=center;verticalAlign=middle;whiteSpace=wrap;rounded=0;fontSize=23;fontStyle=1" vertex="1" parent="WIyWlLk6GJQsqaUBKTNV-1">
          <mxGeometry x="60" y="123" width="300" height="20" as="geometry" />
        </mxCell>
        <mxCell id="T5eM8oi75dSlX7hNDuPz-2" value="Worldwide" style="rounded=1;whiteSpace=wrap;html=1;fontSize=13;labelBorderColor=none;fontStyle=1" vertex="1" parent="WIyWlLk6GJQsqaUBKTNV-1">
          <mxGeometry x="390" y="115" width="170" height="35" as="geometry" />
        </mxCell>
        <mxCell id="T5eM8oi75dSlX7hNDuPz-4" value="" style="rounded=1;whiteSpace=wrap;html=1;fontSize=23;" vertex="1" parent="WIyWlLk6GJQsqaUBKTNV-1">
          <mxGeometry x="100" y="210" width="190" height="80" as="geometry" />
        </mxCell>
        <mxCell id="T5eM8oi75dSlX7hNDuPz-6" value="Corona Virus Cases" style="text;html=1;strokeColor=none;fillColor=none;align=left;verticalAlign=middle;whiteSpace=wrap;rounded=0;fontSize=12;fontStyle=1" vertex="1" parent="WIyWlLk6GJQsqaUBKTNV-1">
          <mxGeometry x="110" y="220" width="120" height="20" as="geometry" />
        </mxCell>
        <mxCell id="T5eM8oi75dSlX7hNDuPz-7" value="+2,000" style="text;html=1;strokeColor=none;fillColor=none;align=left;verticalAlign=middle;whiteSpace=wrap;rounded=0;fontSize=12;" vertex="1" parent="WIyWlLk6GJQsqaUBKTNV-1">
          <mxGeometry x="110" y="240" width="120" height="20" as="geometry" />
        </mxCell>
        <mxCell id="T5eM8oi75dSlX7hNDuPz-8" value="1.2M in Total" style="text;html=1;strokeColor=none;fillColor=none;align=left;verticalAlign=middle;whiteSpace=wrap;rounded=0;fontSize=12;" vertex="1" parent="WIyWlLk6GJQsqaUBKTNV-1">
          <mxGeometry x="110" y="260" width="110" height="20" as="geometry" />
        </mxCell>
        <mxCell id="T5eM8oi75dSlX7hNDuPz-9" value="" style="rounded=1;whiteSpace=wrap;html=1;fontSize=23;" vertex="1" parent="WIyWlLk6GJQsqaUBKTNV-1">
          <mxGeometry x="310" y="210" width="190" height="80" as="geometry" />
        </mxCell>
        <mxCell id="T5eM8oi75dSlX7hNDuPz-10" value="Recovered" style="text;html=1;strokeColor=none;fillColor=none;align=left;verticalAlign=middle;whiteSpace=wrap;rounded=0;fontSize=12;fontStyle=1" vertex="1" parent="WIyWlLk6GJQsqaUBKTNV-1">
          <mxGeometry x="320" y="220" width="120" height="20" as="geometry" />
        </mxCell>
        <mxCell id="T5eM8oi75dSlX7hNDuPz-11" value="+2,000" style="text;html=1;strokeColor=none;fillColor=none;align=left;verticalAlign=middle;whiteSpace=wrap;rounded=0;fontSize=12;" vertex="1" parent="WIyWlLk6GJQsqaUBKTNV-1">
          <mxGeometry x="320" y="240" width="120" height="20" as="geometry" />
        </mxCell>
        <mxCell id="T5eM8oi75dSlX7hNDuPz-12" value="1.2M in Total" style="text;html=1;strokeColor=none;fillColor=none;align=left;verticalAlign=middle;whiteSpace=wrap;rounded=0;fontSize=12;" vertex="1" parent="WIyWlLk6GJQsqaUBKTNV-1">
          <mxGeometry x="320" y="260" width="120" height="20" as="geometry" />
        </mxCell>
        <mxCell id="T5eM8oi75dSlX7hNDuPz-13" value="" style="rounded=1;whiteSpace=wrap;html=1;fontSize=23;" vertex="1" parent="WIyWlLk6GJQsqaUBKTNV-1">
          <mxGeometry x="520" y="210" width="190" height="80" as="geometry" />
        </mxCell>
        <mxCell id="T5eM8oi75dSlX7hNDuPz-14" value="Deaths" style="text;html=1;strokeColor=none;fillColor=none;align=left;verticalAlign=middle;whiteSpace=wrap;rounded=0;fontSize=12;fontStyle=1" vertex="1" parent="WIyWlLk6GJQsqaUBKTNV-1">
          <mxGeometry x="530" y="220" width="120" height="20" as="geometry" />
        </mxCell>
        <mxCell id="T5eM8oi75dSlX7hNDuPz-15" value="+2,000" style="text;html=1;strokeColor=none;fillColor=none;align=left;verticalAlign=middle;whiteSpace=wrap;rounded=0;fontSize=12;" vertex="1" parent="WIyWlLk6GJQsqaUBKTNV-1">
          <mxGeometry x="530" y="240" width="120" height="20" as="geometry" />
        </mxCell>
        <mxCell id="T5eM8oi75dSlX7hNDuPz-16" value="1.2M in Total" style="text;html=1;strokeColor=none;fillColor=none;align=left;verticalAlign=middle;whiteSpace=wrap;rounded=0;fontSize=12;" vertex="1" parent="WIyWlLk6GJQsqaUBKTNV-1">
          <mxGeometry x="530" y="260" width="120" height="20" as="geometry" />
        </mxCell>
        <mxCell id="T5eM8oi75dSlX7hNDuPz-19" value="" style="rounded=1;whiteSpace=wrap;html=1;fontSize=12;align=left;arcSize=4;" vertex="1" parent="WIyWlLk6GJQsqaUBKTNV-1">
          <mxGeometry x="100" y="320" width="610" height="460" as="geometry" />
        </mxCell>
        <mxCell id="T5eM8oi75dSlX7hNDuPz-20" value="" style="shape=image;html=1;verticalAlign=top;verticalLabelPosition=bottom;labelBackgroundColor=#ffffff;imageAspect=0;aspect=fixed;image=https://cdn2.iconfinder.com/data/icons/round-varieties/60/Rounded_-_High_Ultra_Colour02_-_Maps-128.png;fontSize=12;" vertex="1" parent="WIyWlLk6GJQsqaUBKTNV-1">
          <mxGeometry x="331" y="450" width="148" height="148" as="geometry" />
        </mxCell>
        <mxCell id="T5eM8oi75dSlX7hNDuPz-22" value="" style="rounded=1;whiteSpace=wrap;html=1;fontSize=12;align=left;arcSize=8;" vertex="1" parent="WIyWlLk6GJQsqaUBKTNV-1">
          <mxGeometry x="750" y="120" width="300" height="660" as="geometry" />
        </mxCell>
        <mxCell id="T5eM8oi75dSlX7hNDuPz-24" value="Cases By County" style="text;html=1;strokeColor=none;fillColor=none;align=center;verticalAlign=middle;whiteSpace=wrap;rounded=0;fontSize=23;fontStyle=1" vertex="1" parent="WIyWlLk6GJQsqaUBKTNV-1">
          <mxGeometry x="760" y="143" width="230" height="20" as="geometry" />
        </mxCell>
        <mxCell id="T5eM8oi75dSlX7hNDuPz-25" value="Label" style="verticalLabelPosition=bottom;verticalAlign=top;html=1;shape=mxgraph.infographic.shadedCube;isoAngle=15;fillColor=#10739E;strokeColor=none;fontStyle=1;fontColor=#10739E;fontSize=12;shadow=0;" vertex="1" parent="WIyWlLk6GJQsqaUBKTNV-1">
          <mxGeometry x="785" y="630" width="40" height="128" as="geometry" />
        </mxCell>
        <mxCell id="T5eM8oi75dSlX7hNDuPz-26" value="Label" style="verticalLabelPosition=bottom;verticalAlign=top;html=1;shape=mxgraph.infographic.shadedCube;isoAngle=15;fillColor=#F2931E;strokeColor=none;fontStyle=1;fontColor=#F2931E;fontSize=12;shadow=0;" vertex="1" parent="WIyWlLk6GJQsqaUBKTNV-1">
          <mxGeometry x="835" y="600" width="40" height="158" as="geometry" />
        </mxCell>
        <mxCell id="T5eM8oi75dSlX7hNDuPz-27" value="Label" style="verticalLabelPosition=bottom;verticalAlign=top;html=1;shape=mxgraph.infographic.shadedCube;isoAngle=15;fillColor=#AE4132;strokeColor=none;fontStyle=1;fontColor=#AE4132;fontSize=12;shadow=0;" vertex="1" parent="WIyWlLk6GJQsqaUBKTNV-1">
          <mxGeometry x="885" y="630" width="40" height="128" as="geometry" />
        </mxCell>
        <mxCell id="T5eM8oi75dSlX7hNDuPz-28" value="Label" style="verticalLabelPosition=bottom;verticalAlign=top;html=1;shape=mxgraph.infographic.shadedCube;isoAngle=15;fillColor=#23445D;strokeColor=none;fontStyle=1;fontColor=#23445D;fontSize=12;shadow=0;" vertex="1" parent="WIyWlLk6GJQsqaUBKTNV-1">
          <mxGeometry x="935" y="660" width="40" height="98" as="geometry" />
        </mxCell>
        <mxCell id="T5eM8oi75dSlX7hNDuPz-29" value="Label" style="verticalLabelPosition=bottom;verticalAlign=top;html=1;shape=mxgraph.infographic.shadedCube;isoAngle=15;fillColor=#12AAB5;strokeColor=none;fontStyle=1;fontColor=#12AAB5;fontSize=12;shadow=0;" vertex="1" parent="WIyWlLk6GJQsqaUBKTNV-1">
          <mxGeometry x="985" y="630" width="40" height="128" as="geometry" />
        </mxCell>
        <mxCell id="T5eM8oi75dSlX7hNDuPz-33" value="" style="rounded=1;whiteSpace=wrap;html=1;fontSize=23;align=left;arcSize=5;" vertex="1" parent="WIyWlLk6GJQsqaUBKTNV-1">
          <mxGeometry x="775" y="190" width="250" height="320" as="geometry" />
        </mxCell>
        <mxCell id="T5eM8oi75dSlX7hNDuPz-35" value="Worldwide New Cses" style="text;html=1;strokeColor=none;fillColor=none;align=center;verticalAlign=middle;whiteSpace=wrap;rounded=0;fontSize=23;fontStyle=1" vertex="1" parent="WIyWlLk6GJQsqaUBKTNV-1">
          <mxGeometry x="770" y="550" width="250" height="20" as="geometry" />
        </mxCell>
        <mxCell id="T5eM8oi75dSlX7hNDuPz-36" value="Value" style="text;html=1;strokeColor=none;fillColor=none;align=center;verticalAlign=middle;whiteSpace=wrap;rounded=0;fontSize=23;" vertex="1" parent="WIyWlLk6GJQsqaUBKTNV-1">
          <mxGeometry x="795" y="220" width="40" height="20" as="geometry" />
        </mxCell>
        <mxCell id="T5eM8oi75dSlX7hNDuPz-37" value="Value" style="text;html=1;strokeColor=none;fillColor=none;align=center;verticalAlign=middle;whiteSpace=wrap;rounded=0;fontSize=23;" vertex="1" parent="WIyWlLk6GJQsqaUBKTNV-1">
          <mxGeometry x="879" y="220" width="40" height="20" as="geometry" />
        </mxCell>
        <mxCell id="T5eM8oi75dSlX7hNDuPz-38" value="Value" style="text;html=1;strokeColor=none;fillColor=none;align=center;verticalAlign=middle;whiteSpace=wrap;rounded=0;fontSize=23;" vertex="1" parent="WIyWlLk6GJQsqaUBKTNV-1">
          <mxGeometry x="970" y="220" width="40" height="20" as="geometry" />
        </mxCell>
        <mxCell id="T5eM8oi75dSlX7hNDuPz-43" value="Value" style="text;html=1;strokeColor=none;fillColor=none;align=center;verticalAlign=middle;whiteSpace=wrap;rounded=0;fontSize=23;" vertex="1" parent="WIyWlLk6GJQsqaUBKTNV-1">
          <mxGeometry x="795" y="300" width="40" height="20" as="geometry" />
        </mxCell>
        <mxCell id="T5eM8oi75dSlX7hNDuPz-44" value="Value" style="text;html=1;strokeColor=none;fillColor=none;align=center;verticalAlign=middle;whiteSpace=wrap;rounded=0;fontSize=23;" vertex="1" parent="WIyWlLk6GJQsqaUBKTNV-1">
          <mxGeometry x="884" y="300" width="40" height="20" as="geometry" />
        </mxCell>
        <mxCell id="T5eM8oi75dSlX7hNDuPz-46" value="Value" style="text;html=1;strokeColor=none;fillColor=none;align=center;verticalAlign=middle;whiteSpace=wrap;rounded=0;fontSize=23;" vertex="1" parent="WIyWlLk6GJQsqaUBKTNV-1">
          <mxGeometry x="970" y="300" width="40" height="20" as="geometry" />
        </mxCell>
        <mxCell id="T5eM8oi75dSlX7hNDuPz-52" value="Value" style="text;html=1;strokeColor=none;fillColor=none;align=center;verticalAlign=middle;whiteSpace=wrap;rounded=0;fontSize=23;" vertex="1" parent="WIyWlLk6GJQsqaUBKTNV-1">
          <mxGeometry x="795" y="380" width="40" height="20" as="geometry" />
        </mxCell>
        <mxCell id="T5eM8oi75dSlX7hNDuPz-53" value="Value" style="text;html=1;strokeColor=none;fillColor=none;align=center;verticalAlign=middle;whiteSpace=wrap;rounded=0;fontSize=23;" vertex="1" parent="WIyWlLk6GJQsqaUBKTNV-1">
          <mxGeometry x="884" y="380" width="40" height="20" as="geometry" />
        </mxCell>
        <mxCell id="T5eM8oi75dSlX7hNDuPz-54" value="Value" style="text;html=1;strokeColor=none;fillColor=none;align=center;verticalAlign=middle;whiteSpace=wrap;rounded=0;fontSize=23;" vertex="1" parent="WIyWlLk6GJQsqaUBKTNV-1">
          <mxGeometry x="970" y="380" width="40" height="20" as="geometry" />
        </mxCell>
        <mxCell id="T5eM8oi75dSlX7hNDuPz-57" value="Value" style="text;html=1;strokeColor=none;fillColor=none;align=center;verticalAlign=middle;whiteSpace=wrap;rounded=0;fontSize=23;" vertex="1" parent="WIyWlLk6GJQsqaUBKTNV-1">
          <mxGeometry x="795" y="460" width="40" height="20" as="geometry" />
        </mxCell>
        <mxCell id="T5eM8oi75dSlX7hNDuPz-58" value="Value" style="text;html=1;strokeColor=none;fillColor=none;align=center;verticalAlign=middle;whiteSpace=wrap;rounded=0;fontSize=23;" vertex="1" parent="WIyWlLk6GJQsqaUBKTNV-1">
          <mxGeometry x="884" y="460" width="40" height="20" as="geometry" />
        </mxCell>
        <mxCell id="T5eM8oi75dSlX7hNDuPz-59" value="Value" style="text;html=1;strokeColor=none;fillColor=none;align=center;verticalAlign=middle;whiteSpace=wrap;rounded=0;fontSize=23;" vertex="1" parent="WIyWlLk6GJQsqaUBKTNV-1">
          <mxGeometry x="885" y="520" width="40" height="20" as="geometry" />
        </mxCell>
        <mxCell id="T5eM8oi75dSlX7hNDuPz-60" value="Value" style="text;html=1;strokeColor=none;fillColor=none;align=center;verticalAlign=middle;whiteSpace=wrap;rounded=0;fontSize=23;" vertex="1" parent="WIyWlLk6GJQsqaUBKTNV-1">
          <mxGeometry x="970" y="460" width="40" height="20" as="geometry" />
        </mxCell>
      </root>
    </mxGraphModel>
  </diagram>
</mxfile>
